<svg xmlns="http://www.w3.org/2000/svg" width="19.006" height="18" viewBox="0 0 19.006 18">
  <path id="eye-slash-Filled_1_" d="M416.019,2491.241a14.332,14.332,0,0,0-2.646-3.2l2.332-2.332a1,1,0,0,0-1.414-1.414l-16,16a1,1,0,1,0,1.414,1.414l2.535-2.535A9.14,9.14,0,0,0,407,2500.5c4.83,0,7.72-3.6,9.02-5.74A3.421,3.421,0,0,0,416.019,2491.241ZM407,2497.5a4.458,4.458,0,0,1-2.385-.7l1.473-1.474A2.489,2.489,0,0,0,409.5,2493a.568.568,0,0,0-.01-.13.993.993,0,0,1-.49.13.973.973,0,0,1-.461-.127l2.262-2.262a4.46,4.46,0,0,1,.7,2.389A4.505,4.505,0,0,1,407,2497.5Zm-7.68-.88a14.3,14.3,0,0,1-1.33-1.86,3.444,3.444,0,0,1-.01-3.52c1.3-2.14,4.2-5.74,9.02-5.74a9.306,9.306,0,0,1,2.75.41.527.527,0,0,1,.35.36.486.486,0,0,1-.14.47l-1.89,1.89a4.674,4.674,0,0,0-1.07-.13,4.507,4.507,0,0,0-4.5,4.5,4.317,4.317,0,0,0,.13,1.08l-2.57,2.57a.491.491,0,0,1-.36.15h-.02A.5.5,0,0,1,399.319,2496.621Z" transform="translate(-397.5 -2484)" fill="#9b9a9a"/>
</svg>
