<svg xmlns="http://www.w3.org/2000/svg" xmlns:xlink="http://www.w3.org/1999/xlink" width="132.715" height="32.927" viewBox="0 0 132.715 32.927">
  <defs>
    <linearGradient id="linear-gradient" x1="0.608" y1="0.504" x2="5.375" y2="0.578" gradientUnits="objectBoundingBox">
      <stop offset="0" stop-color="#004165"/>
      <stop offset="1" stop-color="#008a48"/>
    </linearGradient>
    <linearGradient id="linear-gradient-2" x1="-2.577" y1="0.489" x2="19.133" y2="0.564" xlink:href="#linear-gradient"/>
    <linearGradient id="linear-gradient-3" x1="-1.17" y1="0.468" x2="4.393" y2="0.564" xlink:href="#linear-gradient"/>
    <linearGradient id="linear-gradient-4" x1="-1.441" y1="0.447" x2="1.87" y2="0.543" gradientUnits="objectBoundingBox">
      <stop offset="0" stop-color="#004165"/>
      <stop offset="0.499" stop-color="#006658"/>
      <stop offset="1" stop-color="#008a48"/>
    </linearGradient>
    <linearGradient id="linear-gradient-5" x1="-3.762" y1="0.418" x2="1.117" y2="0.512" xlink:href="#linear-gradient"/>
    <linearGradient id="linear-gradient-6" x1="-6.934" y1="0.398" x2="-0.094" y2="0.494" xlink:href="#linear-gradient"/>
    <linearGradient id="linear-gradient-7" x1="-0.093" y1="0.263" x2="0.749" y2="0.599" gradientUnits="objectBoundingBox">
      <stop offset="0" stop-color="#0070bd"/>
      <stop offset="0.603" stop-color="#004893"/>
      <stop offset="1" stop-color="#002696"/>
    </linearGradient>
    <linearGradient id="linear-gradient-8" x1="-0.846" y1="0.668" x2="0.877" y2="0.453" gradientUnits="objectBoundingBox">
      <stop offset="0.339" stop-color="#00de34"/>
      <stop offset="0.707" stop-color="#00cdba"/>
      <stop offset="1" stop-color="#00c4ea"/>
    </linearGradient>
    <linearGradient id="linear-gradient-9" x1="-0.014" y1="-0.301" x2="0.704" y2="0.588" xlink:href="#linear-gradient"/>
    <linearGradient id="linear-gradient-10" x1="0.5" y1="-0.011" x2="0.5" y2="1.55" gradientUnits="objectBoundingBox">
      <stop offset="0.099" stop-color="#a8e400"/>
      <stop offset="0.619" stop-color="#00e135"/>
      <stop offset="0.973" stop-color="#00cdba"/>
    </linearGradient>
    <linearGradient id="linear-gradient-11" x1="0.559" y1="0.882" x2="-0.09" y2="-0.963" gradientUnits="objectBoundingBox">
      <stop offset="0" stop-color="#0070bd"/>
      <stop offset="0.389" stop-color="#004893"/>
      <stop offset="1" stop-color="#004b95"/>
    </linearGradient>
    <linearGradient id="linear-gradient-12" x1="0.057" y1="0.607" x2="0.986" y2="0.414" gradientUnits="objectBoundingBox">
      <stop offset="0" stop-color="#00d19c"/>
      <stop offset="0.513" stop-color="#00cdba"/>
      <stop offset="1" stop-color="#00c4ea"/>
    </linearGradient>
    <clipPath id="clip-path">
      <path id="Trazado_7987" data-name="Trazado 7987" d="M158.755,1388.255a22.946,22.946,0,0,1-8.79-1.7,18.913,18.913,0,0,1-5.824-3.808,12.256,12.256,0,0,1-3-4.5l-3.924.033a4.382,4.382,0,0,0-2.925,1.583,4.6,4.6,0,0,0-.8,4.4,8.662,8.662,0,0,0,2.022,3.318c3,3.414,8.281,5.584,14.3,5.683,5.944.1,11.538-2.168,14.594-5.683A23.474,23.474,0,0,1,158.755,1388.255Z" transform="translate(-133.265 -1378.242)" fill="none"/>
    </clipPath>
  </defs>
  <g id="Grupo_13575" data-name="Grupo 13575" transform="translate(-133.265 -1329.879)">
    <g id="Grupo_13569" data-name="Grupo 13569" transform="translate(174.424 1329.879)">
      <g id="Grupo_13568" data-name="Grupo 13568">
        <path id="Trazado_7977" data-name="Trazado 7977" d="M255.663,1347.992a1.859,1.859,0,0,1-.223.514.531.531,0,0,1-.462.171h-1.723q-.719,0-.719-.685v-17.428a.647.647,0,0,1,.205-.491.664.664,0,0,1,.468-.194h1.883a.714.714,0,0,1,.537.2.671.671,0,0,1,.194.485v5.239a6.449,6.449,0,0,1,1.889-1.347,5.694,5.694,0,0,1,2.448-.5,7.02,7.02,0,0,1,2.87.588,7.33,7.33,0,0,1,2.317,1.6,7.421,7.421,0,0,1,1.547,2.38,7.915,7.915,0,0,1,0,5.844,7.41,7.41,0,0,1-1.547,2.379,7.322,7.322,0,0,1-2.317,1.6,7.016,7.016,0,0,1-2.87.588,5.5,5.5,0,0,1-1.29-.148,6.4,6.4,0,0,1-1.175-.406,6.026,6.026,0,0,1-1.044-.61,7.433,7.433,0,0,1-.885-.753Zm8.583-6.539a4.718,4.718,0,0,0-.32-1.724,4.554,4.554,0,0,0-.89-1.444,4.364,4.364,0,0,0-1.347-.993,3.843,3.843,0,0,0-1.678-.371,4.057,4.057,0,0,0-1.718.371,4.59,4.59,0,0,0-2.345,2.437,4.435,4.435,0,0,0-.342,1.724v.08a4.238,4.238,0,0,0,.365,1.695,4.64,4.64,0,0,0,.947,1.392,4.443,4.443,0,0,0,1.387.948,4.2,4.2,0,0,0,1.706.348,3.993,3.993,0,0,0,1.678-.354,4.265,4.265,0,0,0,1.347-.959,4.371,4.371,0,0,0,.89-1.421A4.7,4.7,0,0,0,264.246,1341.452Z" transform="translate(-252.536 -1329.879)" fill="url(#linear-gradient)"/>
        <path id="Trazado_7978" data-name="Trazado 7978" d="M303.3,1330.564a.747.747,0,0,1,.159-.491.6.6,0,0,1,.491-.194h2a.609.609,0,0,1,.428.194.657.657,0,0,1,.2.491v17.428a.66.66,0,0,1-.188.514.728.728,0,0,1-.508.171h-1.906a.672.672,0,0,1-.519-.171.747.747,0,0,1-.154-.514Z" transform="translate(-285.784 -1329.879)" fill="url(#linear-gradient-2)"/>
        <path id="Trazado_7979" data-name="Trazado 7979" d="M334.688,1356.181a.235.235,0,0,1-.086.194.509.509,0,0,1-.211.1,1.44,1.44,0,0,1-.274.034c-.1,0-.186.006-.262.006H332.7a.574.574,0,0,1-.491-.211,1.19,1.19,0,0,1-.217-.485l-.126-1.038a4.04,4.04,0,0,1-.628.725,4.085,4.085,0,0,1-.89.616,5.111,5.111,0,0,1-1.182.428,6.514,6.514,0,0,1-1.512.16,5.6,5.6,0,0,1-2.4-.485,4.985,4.985,0,0,1-1.741-1.324,5.8,5.8,0,0,1-1.067-1.98,8,8,0,0,1-.365-2.454v-7.612a.89.89,0,0,1,.194-.622.72.72,0,0,1,.559-.211h1.735a.818.818,0,0,1,.61.171.911.911,0,0,1,.154.6v7.613a3.779,3.779,0,0,0,.189,1.181,3.135,3.135,0,0,0,.565,1.033,2.762,2.762,0,0,0,.941.731,2.988,2.988,0,0,0,1.318.274,3.6,3.6,0,0,0,1.1-.182,3.208,3.208,0,0,0,1.039-.559,3.1,3.1,0,0,0,.776-.942,2.71,2.71,0,0,0,.308-1.318v-7.407a3.8,3.8,0,0,1,.023-.417,1.365,1.365,0,0,1,.1-.388.727.727,0,0,1,.205-.285.548.548,0,0,1,.36-.108h1.883a.742.742,0,0,1,.554.182.708.708,0,0,1,.177.514v13.125A.378.378,0,0,1,334.688,1356.181Z" transform="translate(-298.086 -1337.828)" fill="url(#linear-gradient-3)"/>
        <path id="Trazado_7980" data-name="Trazado 7980" d="M368.747,1342.057a1.641,1.641,0,0,1,.725-.143h1.153a.568.568,0,0,1,.491.218,1.256,1.256,0,0,1,.217.481l.125,1.1a5.808,5.808,0,0,1,.6-.75,3.636,3.636,0,0,1,.816-.636,4.448,4.448,0,0,1,1.107-.441,5.86,5.86,0,0,1,1.478-.166,6.289,6.289,0,0,1,1.45.155,4.335,4.335,0,0,1,1.176.459,4.245,4.245,0,0,1,.947.744,5.646,5.646,0,0,1,.765,1.014,3.647,3.647,0,0,1,.742-.985,4.618,4.618,0,0,1,1.078-.762,5.806,5.806,0,0,1,1.341-.487,6.6,6.6,0,0,1,1.518-.172,5.4,5.4,0,0,1,2.368.491,4.836,4.836,0,0,1,1.706,1.347,5.938,5.938,0,0,1,1.033,2,8.337,8.337,0,0,1,.348,2.443v7.612a.89.89,0,0,1-.194.622.721.721,0,0,1-.559.211h-1.735a.818.818,0,0,1-.611-.171.908.908,0,0,1-.154-.6v-7.662a4.061,4.061,0,0,0-.171-1.175,2.881,2.881,0,0,0-.531-1.009,2.684,2.684,0,0,0-.9-.707,2.9,2.9,0,0,0-1.3-.268,3.013,3.013,0,0,0-1.164.222,2.615,2.615,0,0,0-.924.639,3.023,3.023,0,0,0-.61,1,3.657,3.657,0,0,0-.223,1.305v7.605q0,.821-.742.821h-1.746a.8.8,0,0,1-.6-.171.936.936,0,0,1-.148-.6v-7.651a4.1,4.1,0,0,0-.165-1.157,2.986,2.986,0,0,0-.513-1.009,2.592,2.592,0,0,0-.9-.718,2.88,2.88,0,0,0-1.3-.274,2.93,2.93,0,0,0-1.05.2,3.1,3.1,0,0,0-.953.576,3.005,3.005,0,0,0-.7.923,2.842,2.842,0,0,0-.285,1.243v7.97a.644.644,0,0,1-.194.484.676.676,0,0,1-.491.188h-1.883a.754.754,0,0,1-.554-.177.686.686,0,0,1-.177-.508v-13.136A.537.537,0,0,1,368.747,1342.057Z" transform="translate(-328.453 -1337.612)" fill="url(#linear-gradient-4)"/>
        <path id="Trazado_7981" data-name="Trazado 7981" d="M450.095,1354.812a8.163,8.163,0,0,1-2.2,1.347,6.819,6.819,0,0,1-2.619.491,7.448,7.448,0,0,1-2.922-.582,7.652,7.652,0,0,1-4.069-3.978,7.108,7.108,0,0,1-.611-2.939,7.654,7.654,0,0,1,.965-3.738,7.4,7.4,0,0,1,1.124-1.518,7.118,7.118,0,0,1,1.478-1.181,7.2,7.2,0,0,1,1.769-.759,7.405,7.405,0,0,1,2.015-.268,7.033,7.033,0,0,1,1.712.211,7.51,7.51,0,0,1,1.6.6,7.611,7.611,0,0,1,1.421.941,6.86,6.86,0,0,1,1.164,1.25,6.76,6.76,0,0,1,1,2.066,8.839,8.839,0,0,1,.319,2.454,4.477,4.477,0,0,1-.028.553.684.684,0,0,1-.142.359.658.658,0,0,1-.343.2,2.528,2.528,0,0,1-.639.063H440.975a3.856,3.856,0,0,0,.565,1.455,4.36,4.36,0,0,0,.987,1.073,4.171,4.171,0,0,0,1.244.662,4.268,4.268,0,0,0,1.347.223,4.628,4.628,0,0,0,.987-.1,5.1,5.1,0,0,0,.885-.274,4.891,4.891,0,0,0,.759-.394,4.5,4.5,0,0,0,.61-.462.01.01,0,0,1,.012-.011,1.63,1.63,0,0,1,.262-.2.467.467,0,0,1,.5-.005.82.82,0,0,1,.257.228q.308.377.525.628t.354.422a1.766,1.766,0,0,1,.2.3.56.56,0,0,1,.063.251A.858.858,0,0,1,450.095,1354.812Zm-5.067-10.3a3.632,3.632,0,0,0-1.313.246,4.4,4.4,0,0,0-1.17.668,4.589,4.589,0,0,0-.924.993,4.048,4.048,0,0,0-.576,1.233h8.081a4.4,4.4,0,0,0-.554-1.273,4.068,4.068,0,0,0-.9-.993,3.953,3.953,0,0,0-1.2-.645A4.487,4.487,0,0,0,445.027,1344.516Z" transform="translate(-373.786 -1337.612)" fill="url(#linear-gradient-5)"/>
        <path id="Trazado_7982" data-name="Trazado 7982" d="M487.716,1342.631a.593.593,0,0,1,.224-.5.781.781,0,0,1,.487-.171h1.455a.546.546,0,0,1,.436.171,1.186,1.186,0,0,1,.229.422,2.878,2.878,0,0,1,.115.542q.034.291.08.531a6.77,6.77,0,0,1,.566-.691,3.891,3.891,0,0,1,.713-.6,3.654,3.654,0,0,1,.9-.422,3.769,3.769,0,0,1,1.141-.16,6.445,6.445,0,0,1,1.027.074,4.561,4.561,0,0,1,1.689.628q.4.246.856.577a1.64,1.64,0,0,1,.337.285.548.548,0,0,1,.143.376q-.011.092-.034.194a.611.611,0,0,1-.091.205l-.936,1.484a.575.575,0,0,1-.423.217.741.741,0,0,1-.354-.091q-.376-.205-.685-.388a5.818,5.818,0,0,0-.6-.314,3.487,3.487,0,0,0-.61-.205,3.068,3.068,0,0,0-.7-.074,2.433,2.433,0,0,0-1.718.651,3.283,3.283,0,0,0-.941,1.792v8.606q0,.685-.71.685h-1.878q-.71,0-.71-.685Z" transform="translate(-406.558 -1337.655)" fill="url(#linear-gradient-6)"/>
      </g>
    </g>
    <g id="Grupo_13573" data-name="Grupo 13573" transform="translate(133.265 1331.724)">
      <g id="Grupo_13570" data-name="Grupo 13570">
        <circle id="Elipse_399" data-name="Elipse 399" cx="4.502" cy="4.502" r="4.502" transform="translate(0.965)" fill="url(#linear-gradient-7)"/>
        <circle id="Elipse_400" data-name="Elipse 400" cx="4.502" cy="4.502" r="4.502" transform="translate(23.408)" fill="url(#linear-gradient-8)"/>
        <path id="Trazado_7983" data-name="Trazado 7983" d="M154.24,1402.325a22.949,22.949,0,0,1-8.789,1.7,23.672,23.672,0,0,1-5.659-.679c3,3.414,8.282,5.584,14.3,5.683,5.944.1,11.538-2.168,14.594-5.683a23.474,23.474,0,0,1-5.659.679A22.951,22.951,0,0,1,154.24,1402.325Z" transform="translate(-137.539 -1379.169)" fill="url(#linear-gradient-9)"/>
        <path id="Trazado_7984" data-name="Trazado 7984" d="M156.1,1378.242a12.776,12.776,0,0,0,2.38,3.848,17.606,17.606,0,0,0,6.442,4.463,17.606,17.606,0,0,0,6.442-4.463,12.784,12.784,0,0,0,2.38-3.848Z" transform="translate(-148.217 -1363.397)" fill="url(#linear-gradient-10)"/>
        <path id="Trazado_7985" data-name="Trazado 7985" d="M149.966,1386.553a18.913,18.913,0,0,1-5.824-3.808,12.256,12.256,0,0,1-3-4.5l-3.924.033a4.382,4.382,0,0,0-2.925,1.583,4.6,4.6,0,0,0-.8,4.4,8.662,8.662,0,0,0,2.022,3.318A23.651,23.651,0,0,0,149.966,1386.553Z" transform="translate(-133.265 -1363.397)" fill="url(#linear-gradient-11)"/>
        <path id="Trazado_7986" data-name="Trazado 7986" d="M181.66,1386.553a18.913,18.913,0,0,0,5.824-3.808,12.254,12.254,0,0,0,3-4.5l3.924.033a4.383,4.383,0,0,1,2.925,1.583,4.6,4.6,0,0,1,.8,4.4,8.658,8.658,0,0,1-2.022,3.318A23.651,23.651,0,0,1,181.66,1386.553Z" transform="translate(-164.959 -1363.397)" fill="url(#linear-gradient-12)"/>
      </g>
      <g id="Grupo_13572" data-name="Grupo 13572" transform="translate(0 14.845)">
        <g id="Grupo_13571" data-name="Grupo 13571" clip-path="url(#clip-path)">
          <ellipse id="Elipse_401" data-name="Elipse 401" cx="19.927" cy="13.981" rx="19.927" ry="13.981" transform="translate(5.852 -17.518)" fill="#666" opacity="0.47" style="mix-blend-mode: multiply;isolation: isolate"/>
        </g>
      </g>
    </g>
    <g id="Grupo_13574" data-name="Grupo 13574" transform="translate(174.924 1351.497)">
      <path id="Trazado_7988" data-name="Trazado 7988" d="M253.985,1404.234l3.955-10.814h2.225l3.955,10.814h-2.1l-.865-2.5h-4.217l-.881,2.5Zm3.492-4.048h3.136l-1.576-4.5Z" transform="translate(-253.985 -1393.111)" fill="#197562"/>
      <path id="Trazado_7989" data-name="Trazado 7989" d="M289.271,1403.833a3.6,3.6,0,0,1-1.931-.526,3.755,3.755,0,0,1-1.344-1.437,4.27,4.27,0,0,1-.495-2.07,4.226,4.226,0,0,1,.495-2.062,3.716,3.716,0,0,1,1.344-1.421,3.636,3.636,0,0,1,1.931-.518,3.342,3.342,0,0,1,1.514.324,2.727,2.727,0,0,1,1.05.911v-4.511h1.978v11.124h-1.761l-.216-1.1a3.518,3.518,0,0,1-.981.9A2.922,2.922,0,0,1,289.271,1403.833Zm.417-1.73a2.069,2.069,0,0,0,1.568-.641,2.523,2.523,0,0,0,0-3.29,2.238,2.238,0,0,0-3.129-.008,2.246,2.246,0,0,0-.618,1.637,2.3,2.3,0,0,0,.618,1.653A2.061,2.061,0,0,0,289.688,1402.1Z" transform="translate(-274.625 -1392.524)" fill="#197562"/>
      <path id="Trazado_7990" data-name="Trazado 7990" d="M317.782,1410.049a4.5,4.5,0,0,1-1.792-.332,3.088,3.088,0,0,1-1.236-.919,2.659,2.659,0,0,1-.556-1.36h1.993a1.282,1.282,0,0,0,.5.765,1.678,1.678,0,0,0,1.058.317,1.425,1.425,0,0,0,.95-.263.783.783,0,0,0,.3-.6.664.664,0,0,0-.433-.672,7.63,7.63,0,0,0-1.205-.348q-.494-.108-1-.262a4.648,4.648,0,0,1-.934-.394,2.045,2.045,0,0,1-.687-.618,1.6,1.6,0,0,1-.263-.935,2.172,2.172,0,0,1,.811-1.715,3.4,3.4,0,0,1,2.279-.7,3.435,3.435,0,0,1,2.17.633,2.567,2.567,0,0,1,.966,1.746h-1.869q-.17-.85-1.282-.85a1.454,1.454,0,0,0-.858.216.646.646,0,0,0-.3.541q0,.34.448.541a6.55,6.55,0,0,0,1.19.371q.8.186,1.476.41a2.481,2.481,0,0,1,1.074.664,1.8,1.8,0,0,1,.4,1.26,2.157,2.157,0,0,1-.371,1.282,2.561,2.561,0,0,1-1.113.9A4.176,4.176,0,0,1,317.782,1410.049Z" transform="translate(-293.419 -1398.74)" fill="#197562"/>
    </g>
  </g>
</svg>
